<svg width="25" height="17" viewBox="0 0 25 17" fill="none" xmlns="http://www.w3.org/2000/svg">
<path d="M15.5628 8.49369C15.5628 9.97164 15.2639 11.2897 14.666 12.4479C14.0681 13.599 13.216 14.4978 12.1096 15.1444C11.0032 15.7981 9.73528 16.125 8.30588 16.125C7.28194 16.125 6.30266 15.9189 5.36806 15.5068C4.43345 15.0947 3.62941 14.5405 2.95595 13.8441C2.28248 13.1478 1.74646 12.3165 1.34787 11.3501C0.949291 10.3838 0.75 9.37122 0.75 8.3125C0.75 7.25378 0.949291 6.24125 1.34787 5.2749C1.74646 4.30855 2.28248 3.47721 2.95595 2.78087C3.62941 2.08453 4.43345 1.5303 5.36806 1.11818C6.30266 0.706059 7.28194 0.5 8.30588 0.5C10.2713 0.5 11.9584 1.18213 13.3672 2.54639L11.3159 4.58211C10.5118 3.77919 9.5085 3.37773 8.30588 3.37773C7.46061 3.37773 6.67719 3.598 5.95562 4.03854C5.24092 4.47908 4.67397 5.0795 4.25477 5.83979C3.83558 6.59297 3.62598 7.41721 3.62598 8.3125C3.62598 9.20779 3.83558 10.0356 4.25477 10.7959C4.67397 11.5491 5.24092 12.1459 5.95562 12.5865C6.67719 13.027 7.46061 13.2473 8.30588 13.2473C8.87627 13.2473 9.39855 13.1656 9.87272 13.0021C10.3538 12.8387 10.7489 12.6362 11.0582 12.3946C11.3674 12.1459 11.6354 11.8653 11.8622 11.5526C12.0958 11.24 12.2642 10.9451 12.3673 10.668C12.4773 10.3909 12.5528 10.128 12.5941 9.87926H8.30588V7.19338H15.4391C15.5216 7.64103 15.5628 8.07447 15.5628 8.49369ZM24.5 7.19338V9.43162H22.3456V11.6592H20.1809V9.43162H18.0265V7.19338H20.1809V4.96581H22.3456V7.19338H24.5Z" fill="white"/>
</svg>
