<svg width="67" height="20" viewBox="0 0 67 20" fill="none" xmlns="http://www.w3.org/2000/svg">
<rect width="67" height="20" fill="black" fill-opacity="0"/>
<rect width="27.789" height="12.5744" fill="black" fill-opacity="0"/>
<path d="M0.295522 12.1052L0.268646 10.6422L17.6838 0.400997C17.9526 0.235371 18.3288 0.235372 18.5976 0.428602L27.4933 6.50156L27.4395 8.0198L18.5438 1.94684C18.2751 1.75361 17.8988 1.75361 17.6301 1.91924L0.295522 12.1052Z" fill="#000933"/>
<path d="M0.0536897 12.5744L-6.10352e-05 10.4765L0.134315 10.3937L17.5495 0.152469C17.9257 -0.0683654 18.4095 -0.0407615 18.7589 0.180073L27.7889 6.33584L27.6814 8.51659L18.3826 2.16759C18.1945 2.02957 17.9257 2.02956 17.7376 2.13998L0.0536897 12.5744ZM0.537444 10.7801L0.56432 11.6359L17.4957 1.67071C17.872 1.44987 18.3557 1.47748 18.7051 1.69831L27.2246 7.49523L27.2514 6.61189L18.4632 0.621743C18.2751 0.483721 18.0064 0.483721 17.8182 0.594139L0.537444 10.7801Z" fill="#000933"/>
<rect width="36.6847" height="9.4959" fill="black" fill-opacity="0" transform="translate(30.3152 10.5042)"/>
<rect width="36.6847" height="9.4959" fill="black" fill-opacity="0" transform="translate(30.3152 10.5042)"/>
<path d="M38.4316 11.5265C39.1035 12.2166 39.4528 13.238 39.4528 14.563V19.8354H36.8728V15.0046C36.8728 14.2869 36.7116 13.7348 36.4159 13.376C36.0934 13.0171 35.6634 12.8239 35.0722 12.8239C34.4272 12.8239 33.8897 13.0447 33.5134 13.4588C33.1371 13.8729 32.9221 14.5078 32.9221 15.3083V19.863H30.3152V10.6431H32.7878V11.7197C33.1371 11.3333 33.5672 11.0296 34.0778 10.8088C34.5884 10.5879 35.1528 10.5051 35.7709 10.5051C36.8728 10.5051 37.7597 10.864 38.4316 11.5265Z" fill="#000933"/>
<path d="M43.6453 19.3928C42.8928 18.9787 42.3016 18.4266 41.8984 17.7089C41.4684 16.9912 41.2534 16.163 41.2534 15.2521C41.2534 14.3412 41.4684 13.513 41.8984 12.7953C42.3284 12.0776 42.9197 11.5255 43.6453 11.1114C44.3978 10.6974 45.231 10.5042 46.1985 10.5042C47.1391 10.5042 47.9991 10.6974 48.7247 11.1114C49.4772 11.5255 50.0416 12.0776 50.4716 12.7953C50.9016 13.513 51.1166 14.3412 51.1166 15.2521C51.1166 16.163 50.9016 16.9912 50.4716 17.7089C50.0416 18.4266 49.4772 18.9787 48.7247 19.3928C47.9722 19.8068 47.1391 20 46.1985 20C45.231 20 44.3978 19.7792 43.6453 19.3928ZM47.8379 17.1016C48.2679 16.6323 48.4829 16.025 48.4829 15.2521C48.4829 14.4792 48.2679 13.8443 47.8379 13.4026C47.4078 12.9333 46.8703 12.7125 46.1985 12.7125C45.5266 12.7125 44.9891 12.9333 44.5591 13.4026C44.1291 13.8719 43.9141 14.4792 43.9141 15.2521C43.9141 16.025 44.1291 16.6599 44.5591 17.1016C44.9891 17.5709 45.5535 17.7917 46.1985 17.7917C46.8435 17.7917 47.4078 17.5709 47.8379 17.1016Z" fill="#000933"/>
<path d="M67 10.6422L63.7481 19.8621H61.2487L59.233 14.148L57.1367 19.8621H54.6374L51.4123 10.6422H53.858L55.9811 16.8808L58.1849 10.6422H60.3887L62.5118 16.8808L64.6887 10.6422H67Z" fill="#000933"/>
<rect width="16.2975" height="9.46829" fill="black" fill-opacity="0" transform="translate(9.00311 10.5042)"/>
<path d="M12.7656 10.863C13.3031 10.6422 13.8943 10.5317 14.5931 10.5317V12.9885C14.2975 12.9609 14.1093 12.9609 14.0018 12.9609C13.2493 12.9609 12.685 13.1818 12.255 13.5958C11.825 14.0375 11.6099 14.6724 11.6099 15.5281V19.8896H9.00305V10.6422H11.4756V11.8567C11.7981 11.4151 12.2281 11.0838 12.7656 10.863Z" fill="#000933"/>
<path d="M25.2627 15.9974H18.4901C18.6245 16.5771 18.8932 17.0188 19.3501 17.35C19.807 17.6813 20.3714 17.8469 21.0432 17.8469C21.5001 17.8469 21.9301 17.7641 22.2795 17.6261C22.6289 17.4881 22.9783 17.2672 23.3008 16.936L24.6714 18.4818C23.8383 19.4756 22.602 19.9724 20.9626 19.9724C19.9414 19.9724 19.0545 19.7792 18.2751 19.3651C17.4957 18.9511 16.9044 18.399 16.4744 17.6813C16.0444 16.9636 15.8294 16.1354 15.8294 15.2245C15.8294 14.3136 16.0444 13.513 16.4476 12.7953C16.8776 12.0776 17.442 11.4979 18.1676 11.1114C18.8932 10.6974 19.6995 10.5042 20.6132 10.5042C21.5001 10.5042 22.2795 10.6974 23.0051 11.0838C23.7039 11.4703 24.2683 12.0224 24.6714 12.7401C25.0745 13.4578 25.2895 14.3136 25.2895 15.2521C25.3164 15.3073 25.2895 15.5557 25.2627 15.9974ZM19.1888 13.0438C18.7857 13.375 18.5438 13.8443 18.4632 14.4516H22.8708C22.7901 13.8719 22.5482 13.4026 22.1451 13.0438C21.742 12.6849 21.2582 12.5193 20.667 12.5193C20.0757 12.5193 19.592 12.7125 19.1888 13.0438Z" fill="#000933"/>
</svg>
