<svg width="15" height="17" viewBox="0 0 15 17" fill="none" xmlns="http://www.w3.org/2000/svg">
<path d="M5.125 7.70825H3.54167V9.29159H5.125V7.70825ZM8.29167 7.70825H6.70833V9.29159H8.29167V7.70825ZM11.4583 7.70825H9.875V9.29159H11.4583V7.70825ZM13.0417 2.16659H12.25V0.583252H10.6667V2.16659H4.33333V0.583252H2.75V2.16659H1.95833C1.07958 2.16659 0.375 2.87909 0.375 3.74992V14.8333C0.375 15.2532 0.541815 15.6559 0.838748 15.9528C1.13568 16.2498 1.53841 16.4166 1.95833 16.4166H13.0417C13.4616 16.4166 13.8643 16.2498 14.1613 15.9528C14.4582 15.6559 14.625 15.2532 14.625 14.8333V3.74992C14.625 3.32999 14.4582 2.92727 14.1613 2.63033C13.8643 2.3334 13.4616 2.16659 13.0417 2.16659ZM13.0417 14.8333H1.95833V6.12492H13.0417V14.8333Z" fill="url(#paint0_linear)"/>
<defs>
<linearGradient id="paint0_linear" x1="14.625" y1="16.4166" x2="-1.6888" y2="13.709" gradientUnits="userSpaceOnUse">
<stop stop-color="#5497BF"/>
<stop offset="1" stop-color="#1A579F"/>
</linearGradient>
</defs>
</svg>
