<svg width="13" height="17" viewBox="0 0 13 17" fill="none" xmlns="http://www.w3.org/2000/svg">
<path d="M6.49998 4.14575C7.02489 4.14575 7.5283 4.35427 7.89946 4.72544C8.27063 5.0966 8.47915 5.60001 8.47915 6.12492C8.47915 6.38483 8.42795 6.64219 8.32849 6.88231C8.22903 7.12244 8.08324 7.34062 7.89946 7.5244C7.71568 7.70818 7.4975 7.85397 7.25737 7.95343C7.01725 8.05289 6.75989 8.10409 6.49998 8.10409C5.97507 8.10409 5.47166 7.89557 5.1005 7.5244C4.72933 7.15324 4.52081 6.64983 4.52081 6.12492C4.52081 5.60001 4.72933 5.0966 5.1005 4.72544C5.47166 4.35427 5.97507 4.14575 6.49998 4.14575ZM6.49998 0.583252C7.96972 0.583252 9.37927 1.1671 10.4185 2.20637C11.4578 3.24563 12.0416 4.65518 12.0416 6.12492C12.0416 10.2812 6.49998 16.4166 6.49998 16.4166C6.49998 16.4166 0.958313 10.2812 0.958313 6.12492C0.958313 4.65518 1.54217 3.24563 2.58143 2.20637C3.62069 1.1671 5.03024 0.583252 6.49998 0.583252ZM6.49998 2.16659C5.45016 2.16659 4.44335 2.58362 3.70102 3.32595C2.95868 4.06829 2.54165 5.0751 2.54165 6.12492C2.54165 6.91659 2.54165 8.49992 6.49998 13.812C10.4583 8.49992 10.4583 6.91659 10.4583 6.12492C10.4583 5.0751 10.0413 4.06829 9.29894 3.32595C8.55661 2.58362 7.5498 2.16659 6.49998 2.16659Z" fill="url(#paint0_linear)"/>
<defs>
<linearGradient id="paint0_linear" x1="12.0416" y1="16.4166" x2="-0.78268" y2="14.7612" gradientUnits="userSpaceOnUse">
<stop stop-color="#5497BF"/>
<stop offset="1" stop-color="#1A579F"/>
</linearGradient>
</defs>
</svg>
