<svg width="13" height="17" viewBox="0 0 13 17" fill="none" xmlns="http://www.w3.org/2000/svg">
<path d="M6.50004 4.14575C7.02495 4.14575 7.52836 4.35427 7.89952 4.72544C8.27069 5.0966 8.47921 5.60001 8.47921 6.12492C8.47921 6.38483 8.42802 6.64219 8.32855 6.88231C8.22909 7.12244 8.08331 7.34062 7.89952 7.5244C7.71574 7.70818 7.49756 7.85397 7.25744 7.95343C7.01731 8.05289 6.75995 8.10409 6.50004 8.10409C5.97513 8.10409 5.47172 7.89557 5.10056 7.5244C4.72939 7.15324 4.52087 6.64983 4.52087 6.12492C4.52087 5.60001 4.72939 5.0966 5.10056 4.72544C5.47172 4.35427 5.97513 4.14575 6.50004 4.14575ZM6.50004 0.583252C7.96978 0.583252 9.37933 1.1671 10.4186 2.20637C11.4579 3.24563 12.0417 4.65518 12.0417 6.12492C12.0417 10.2812 6.50004 16.4166 6.50004 16.4166C6.50004 16.4166 0.958374 10.2812 0.958374 6.12492C0.958374 4.65518 1.54223 3.24563 2.58149 2.20637C3.62075 1.1671 5.0303 0.583252 6.50004 0.583252V0.583252ZM6.50004 2.16659C5.45023 2.16659 4.44341 2.58362 3.70108 3.32595C2.95874 4.06829 2.54171 5.0751 2.54171 6.12492C2.54171 6.91659 2.54171 8.49992 6.50004 13.812C10.4584 8.49992 10.4584 6.91659 10.4584 6.12492C10.4584 5.0751 10.0413 4.06829 9.29901 3.32595C8.55667 2.58362 7.54986 2.16659 6.50004 2.16659V2.16659Z" fill="url(#paint0_linear)"/>
<defs>
<linearGradient id="paint0_linear" x1="12.0417" y1="16.4166" x2="-0.782619" y2="14.7612" gradientUnits="userSpaceOnUse">
<stop stop-color="#5497BF"/>
<stop offset="1" stop-color="#1A579F"/>
</linearGradient>
</defs>
</svg>
